<?xml version="1.0" encoding="UTF-8" standalone="no"?>
<svg id="svg2" xmlns:rdf="http://www.w3.org/1999/02/22-rdf-syntax-ns#" xmlns="http://www.w3.org/2000/svg" height="1531pt" width="1879pt" version="1.1" xmlns:cc="http://creativecommons.org/ns#" xmlns:xlink="http://www.w3.org/1999/xlink" viewBox="0 0 1879 1531" xmlns:dc="http://purl.org/dc/elements/1.1/">
<defs id="defs20">
<pattern id="pattern4908" xlink:href="#pattern4182" patternTransform="matrix(.45255 .45255 -.45255 .45255 615.06 557.5)"/>
<pattern id="pattern4182" width="70.000425" patternUnits="userSpaceOnUse" patternTransform="matrix(.8 0 0 .8 768.83 696.87)" height="70.000381">
<g id="g4178" transform="matrix(1.25 0 0 1.25 -961.03 -871.09)">
<rect id="rect4170" height="56" width="56" y="696.87" x="768.83" fill="#f19db0"/>
<path id="path4160" d="m961.04 871.09v14.242a12.516 12.516 0 0 0 1.1309 0.0605 12.516 12.516 0 0 0 12.516 -12.516 12.516 12.516 0 0 0 -0.14453 -1.7871h-13.502zm58.756 0a12.516 12.516 0 0 0 -0.1406 1.7871 12.516 12.516 0 0 0 11.385 12.455v-14.242h-11.244zm-57.625 59.271a12.516 12.516 0 0 0 -1.1309 0.0566v10.672h13.502a12.516 12.516 0 0 0 -12.371 -10.729zm68.869 0.0566a12.516 12.516 0 0 0 -11.244 10.672h11.244v-10.672z" transform="scale(.8)" fill="#fff"/>
</g>
</pattern>
</defs>
<g id="g4961">
<path id="path4950" d="m949.56 562.88c-100.69 0.02-201.03 0.9-300.71 3.52-117.86 7.7-219.23 112.02-223.79 229.99-0.18 108.63 0.08 217.31-0.13 325.91 0.17 21.2 0.01 42.4-0.02 63.6-0.15 198.1 0.73 396.2-0.44 594.2-137.76-0.1-275.61-0.4-413.36 0.2 0.378 41.1-0.073 82.3 0.214 123.4 774.9 0.3 1549.8-0.2 2324.7 0.2-0.5-41 1.6-82.3-1-123.3-126.9-1.1-254-0.7-380.8-0.2-4-208.8-0.5-418.1-1.8-627.1 0.2-19.5 0-38.9 0.2-58.3-0.2-92.9 0-185.84-0.1-278.76 10.9-127.93-102.7-246.14-229.2-250.79-256.8 3.04-516.4-2.61-773.74-2.57zm693.74 535.02c-1.7 3.5-3.4 6.9-5 10.4 1.6-3.5 3.3-6.9 5-10.4zm-585.1 9.9c1 3.2 2.1 6.3 3.2 9.5-1.1-3.2-2.2-6.3-3.2-9.5zm-290.76 3c0.59 0.1 1.18 0.3 1.75 0.5-0.57-0.2-1.16-0.4-1.75-0.5zm563.86 14c-0.6 3.7-1.2 7.5-1.8 11.2 0.6-3.7 1.2-7.5 1.8-11.2zm-266.4 1.8c2.4 6.2 5 12.4 7.7 18.5-2.7-6.1-5.3-12.3-7.7-18.5zm-328.77 8.4c-1.35 2.2-2.66 4.3-3.95 6.5 1.29-2.2 2.6-4.3 3.95-6.5zm1185.6 5.9c-6 9.5-12 18.9-18.3 28.2 6.3-9.3 12.3-18.7 18.3-28.2zm-1458.4 17.6c3.83 3.2 7.74 6.4 11.72 9.5-3.98-3.1-7.89-6.3-11.72-9.5zm615.81 0.1c1.5 3 3 5.9 4.6 8.9-1.6-3-3.1-5.9-4.6-8.9zm-362 9.9c-1.29 2.2-2.61 4.4-3.97 6.5 1.36-2.1 2.68-4.3 3.97-6.5zm-229.89 8.2c2.07 1.4 4.17 2.8 6.29 4.1-2.12-1.3-4.22-2.7-6.29-4.1zm9.5 6.1c2.14 1.3 4.31 2.5 6.51 3.7-2.2-1.2-4.37-2.4-6.51-3.7zm1436.2 1.5c-4.3 6.9-8.6 13.9-12.9 20.9 4.3-7 8.6-14 12.9-20.9zm-1429.7 2.2c2.2 1.2 4.42 2.4 6.68 3.5 3.37 1.7 6.82 3.3 10.32 4.8-3.5-1.5-6.95-3.1-10.32-4.8-2.26-1.1-4.48-2.3-6.68-3.5zm1123.4 6.4c-2.1 5.1-4.2 10.2-6.2 15.4 2-5.2 4.1-10.3 6.2-15.4zm-1097.2 5.7c2.67 1 5.36 2 8.06 2.9-2.7-0.9-5.39-1.9-8.06-2.9zm10.42 3.7c4.29 1.5 8.62 2.8 12.98 3.9-4.36-1.1-8.69-2.4-12.98-3.9zm494.53 0.5c-2.1 5.4-4.2 10.8-6.3 16.2 2.1-5.4 4.2-10.8 6.3-16.2zm-303.3 2.4c-1.3 2.1-2.56 4.1-3.79 6.3 1.23-2.2 2.49-4.2 3.79-6.3zm549.1 36.5c-1.4 1.3-2.8 2.5-4.2 3.8 1.4-1.3 2.8-2.5 4.2-3.8zm-22.1 16.4c-1.3 0.8-2.7 1.5-4.1 2.1 1.4-0.6 2.8-1.3 4.1-2.1zm279.5 20.1c-0.9 0.3-1.9 0.6-2.8 0.9 0.9-0.3 1.9-0.6 2.8-0.9zm-41.3 0.6c2.3 0.4 4.7 0.8 7 1.1-2.3-0.3-4.7-0.7-7-1.1zm36.5 0.9l-3 0.6 3-0.6z" transform="scale(.8)" fill="#f19db0"/>
<path id="path4919" style="color-rendering:auto;text-decoration-color:#000000;color:#000000;isolation:auto;mix-blend-mode:normal;shape-rendering:auto;solid-color:#000000;block-progression:tb;text-decoration-line:none;text-decoration-style:solid;image-rendering:auto;white-space:normal;text-indent:0;text-transform:none" d="m802.1 112.07v54.353h6.4v-54.353h-6.4zm156.14 0v54.353h6.4v-54.353h-6.4zm158.86 0v54.353h6.4v-54.353h-6.4z" fill-rule="evenodd" fill="#868686"/>
<path id="path4" fill="#efd984" d="m1119.2 10.986c-15.78 21.44-25.259 48.46-20.359 75.27 2.34 15.28 4.1797 36.279 20.33 43.419 11.98-2.19 16.21-16.229 18.87-26.559 8.84-31.08 3.3694-68.45-18.841-92.13zm-313.85 0.32c-13.97 16.58-21.87 38.759-22.02 60.519 2.06 20.25 1.8703 47.04 21.87 58.7 5.93-2.81 11.28-7.3294 13.67-13.609 15.13-33.694 11.37-78.734-13.52-105.61zm156.07 0.0094c-25.45 30.46-28.65 77.32-9.3499 111.68 5.3799 10.34 18.38 5.7103 22.15-3.7797 15.96-34.19 12.78-80.6-12.8-107.9z"/>
<g>
<path id="path10" d="m519.08 453.12c-94.29 6.16-175.38 89.619-179.03 183.99-0.15 86.91 0.0606 173.83-0.10938 260.74 22.51 22.69 46.299 45.429 76.239 57.959 38.62 17.27 82.56 18.941 123.75 12.131 31.84-12.48 38.24-51.191 59.75-74.311 5.62-6.2 15.72-7.7397 21.18-0.42968 39.89 48.62 67.001 106.36 106.94 154.98 2.82 2.24 5.6606 7.1409 9.7406 6.4609 49.83-49.74 84.22-113.09 105.43-179.78 11.99 40.64 31.22 80.371 62.35 109.83 26.65 26.23 70.19 41.129 104.32 19.939 42.09-27.01 53.849-80.42 57.969-127 17.62 39.89 36.06 81.051 67.92 111.84 21.41 21.37 50.671 35.589 81.261 35.409 15.06 0.03 28.47-9.0894 37.88-20.209 31.57-39.31 40.329-91.701 64.309-134.44 30.87 41.28 55.51 90.951 98.12 122.64 17.48 13.58 43.29 11.36 59.35-3.4203 36.04-31.68 59.159-74.62 84.409-114.73 0.3 0.32 0.9212 0.95968 1.2312 1.2797-0.21-74.34-0.03-148.67-0.091-223.01 8.75-102.34-82.2-196.91-183.33-200.63-285.89 3.3876-576.05-6.6842-859.59 0.76093z" fill="url(#pattern4908)"/>
<path id="path12" d="m1254.7 1004.7c31.57-39.31 40.33-91.7 64.31-134.44 30.87 41.28 55.51 90.95 98.12 122.64 17.48 13.58 43.29 11.36 59.35-3.42 36.04-31.68 59.16-74.62 84.41-114.73 0.3 0.32 0.92 0.96 1.23 1.28-0.16 15.53 0.02 31.07-0.13 46.61-28.62 43.24-51.76 92.32-93.11 125.21-16.61 13.13-40.95 9.08-55.73-4.94-38.89-34.31-64.05-80.68-93.4-122.7-3.17-0.67-3.5 4.47-5.34 6.19-22.26 41.47-31.66 89.15-58.91 128.1-9.03 12.83-22.83 24.98-39.52 24.28-40.44-0.03-75.92-26.47-97.93-58.76-21.88-29.14-36.36-62.87-49.7-96.53-1.31 0.02-3.93 0.07-5.24 0.09-0.88 29.74-5.47 59.85-17.19 87.36-10.35 24.46-28.74 48.4-55.57 55.43-26.33 7.38-53.92-3.7-74.17-20.48-39.71-31.92-61.03-81.07-72.41-129.59-0.41-0.04-1.22-0.12-1.62-0.16-18.99 70.88-53.32 140.26-106.92 190.79-42.83-47.95-68.9-108.5-110.38-157.6-6.36-9.19-20.45-9.55-27.6-1.03-21.87 21.57-27.41 57.86-56.05 72.93-45.04 8.75-94.45 5.44-135.21-17.17-25.65-13.55-46.59-34.13-66.03-55.31 0.02-16.96 0.15-33.92 0.01-50.87 22.51 22.69 46.3 45.43 76.24 57.96 38.62 17.27 82.56 18.94 123.75 12.13 31.84-12.48 38.24-51.19 59.75-74.31 5.62-6.2 15.72-7.74 21.18-0.43 39.89 48.62 67 106.36 106.94 154.98 2.82 2.24 5.66 7.14 9.74 6.46 49.83-49.74 84.22-113.09 105.43-179.78 11.99 40.64 31.22 80.37 62.35 109.83 26.65 26.23 70.19 41.13 104.32 19.94 42.09-27.01 53.85-80.42 57.97-127 17.62 39.89 36.06 81.05 67.92 111.84 21.41 21.37 50.67 35.59 81.26 35.41 15.06 0.03 28.47-9.09 37.88-20.21z" fill="#fefdeb"/>
<path id="path16" d="m8.89 1424.2c110.2-0.49 220.48-0.23 330.69-0.16 2.58 0.56 5.18 1.71 7.89 1.87 403 0.12 806-0.03 1209 0.07 2.87 0.81 5.15 0.24 6.86-1.71 101.47-0.44 203.14-0.72 304.66 0.12 2.12 32.8 0.41 65.85 0.83 98.7-619.92-0.36-1239.8 0.04-1859.8-0.2-0.23-32.9 0.13-65.8-0.17-98.69z" fill="#c7c7c7"/>
<path id="path4154" d="m967.65 150.81c-10.155 0.003-20.3 0.23125-30.488 0.275-0.30936 101.41 0.0168 202.82-0.16096 304.23h49.542c-0.53416-0.63312-0.79592-1.4513-0.58128-2.4125 0.13-100.59 0.14904-201.19-0.0112-301.77-6.1125-0.24749-12.208-0.32693-18.302-0.325zm-156.04 0.002c-10.152 0.005-20.294 0.23126-30.475 0.26251 0.20934 101.39-1.1203 202.9 0.66407 304.24h48.253c-0.20728-101.4 0.11096-202.79-0.14848-304.18-6.1087-0.24749-12.203-0.32607-18.294-0.32344zm307.89 0.18126c-8.1512 0.0262-16.302 0.0959-24.447 0.11094-0.1796 101.4 0.038 202.81-0.1 304.21h49.1c-0.1779-101.39 0.04-202.78-0.1-304.17-8.15-0.16-16.302-0.17782-24.453-0.15156z" fill="#f19db0"/>
</g>
</g>
</svg>
